:FULLY-SPECIFIED
:FORCE-ALL-JOINTS-BE-3DOF
:DEGREES
34
root 6.00421 16.8508 -28.1305 10.2421 -0.691014 -2.1365
lfemur -22.4257 4.20508 -20.1437
ltibia 36.8265 0 0
lfoot -34.8017 0.0203865 0
ltoes 37.2424 0 0
rfemur -18.2693 1.3821 19.408
rtibia 32.5148 0 0
rfoot -28.7304 -14.7543 0
rtoes 8.72848 0 0
lowerback -4.4292 2.49492 -1.15684
upperback -2.00624 3.33743 0.78996
thorax 0.190463 1.72839 1.57499
lowerneck -9.74352 -1.93054 2.5162
upperneck -3.00681 -2.8013 0.655468
head 0.656239 -1.41671 -0.315508
lclavicle -2.40412e-014 -1.63939e-014 0
lhumerus -41.3813 -13.0118 97.0215
lradius 39.4961 0 0
lwrist 5.60731 0 0
lhand -10.9532 5.38365 0
lfingers 7.12502 0 0
lthumb 15.0655 34.8153 0
rclavicle -2.40412e-014 -1.63939e-014 0
rhumerus -41.2066 -3.92038 -88.9821
rradius 40.2751 0 0
rwrist 9.3258 0 0
rhand -25.1379 -21.6933 0
rfingers 7.12502 0 0
rthumb 1.37844 -51.6665 0
35
root 5.99697 16.8512 -28.1303 10.2791 -0.635293 -2.10858
lfemur -22.4879 4.26273 -20.1482
ltibia 36.8538 0 0
lfoot -34.6849 -0.0983033 0
ltoes 37.1905 0 0
rfemur -18.2328 1.41731 19.4045
rtibia 32.4081 0 0
rfoot -28.6805 -14.8834 0
rtoes 8.34303 0 0
lowerback -4.50125 2.45932 -1.03924
upperback -1.98621 3.28694 0.708056
thorax 0.26787 1.69985 1.42804
lowerneck -9.74038 -1.91726 2.53342
upperneck -3.05613 -2.78542 0.725447
head 0.640842 -1.40818 -0.295503
lclavicle -2.42683e-014 -1.57702e-014 0
lhumerus -41.3708 -13.0784 96.9364
lradius 39.6472 0 0
lwrist 5.71132 0 0
lhand -10.9641 5.25418 0
lfingers 7.12502 0 0
lthumb 15.055 34.6866 0
rclavicle -2.42683e-014 -1.57702e-014 0
rhumerus -41.1439 -3.89184 -89.1248
rradius 40.269 0 0
rwrist 9.30856 0 0
rhand -25.1785 -21.6696 0
rfingers 7.12502 0 0
rthumb 1.33918 -51.6431 0
36
root 5.98973 16.8516 -28.13 10.3161 -0.579573 -2.08066
lfemur -22.5502 4.32038 -20.1527
ltibia 36.8811 0 0
lfoot -34.5682 -0.216993 0
ltoes 37.1386 0 0
rfemur -18.1962 1.45252 19.4009
rtibia 32.3015 0 0
rfoot -28.6306 -15.0124 0
rtoes 7.95758 0 0
lowerback -4.57331 2.42372 -0.921635
upperback -1.96618 3.23645 0.626152
thorax 0.345277 1.67131 1.28108
lowerneck -9.73725 -1.90398 2.55063
upperneck -3.10545 -2.76954 0.795425
head 0.625445 -1.39965 -0.275498
lclavicle -2.44953e-014 -1.51466e-014 0
lhumerus -41.3604 -13.145 96.8513
lradius 39.7983 0 0
lwrist 5.81532 0 0
lhand -10.975 5.1247 0
lfingers 7.12502 0 0
lthumb 15.0446 34.5579 0
rclavicle -2.44953e-014 -1.51466e-014 0
rhumerus -41.0813 -3.8633 -89.2676
rradius 40.2629 0 0
rwrist 9.29132 0 0
rhand -25.2191 -21.6459 0
rfingers 7.12502 0 0
rthumb 1.29992 -51.6197 0
37
root 5.98249 16.8521 -28.1298 10.3531 -0.523852 -2.05275
lfemur -22.6124 4.37803 -20.1572
ltibia 36.9083 0 0
lfoot -34.4515 -0.335683 0
ltoes 37.0868 0 0
rfemur -18.1597 1.48773 19.3973
rtibia 32.1948 0 0
rfoot -28.5807 -15.1414 0
rtoes 7.57213 0 0
lowerback -4.64536 2.38812 -0.804035
upperback -1.94614 3.18597 0.544248
thorax 0.422684 1.64277 1.13413
lowerneck -9.73411 -1.89071 2.56784
upperneck -3.15477 -2.75366 0.865404
head 0.610049 -1.39111 -0.255494
lclavicle -2.47224e-014 -1.4523e-014 0
lhumerus -41.35 -13.2117 96.7661
lradius 39.9494 0 0
lwrist 5.91932 0 0
lhand -10.9858 4.99522 0
lfingers 7.12502 0 0
lthumb 15.0341 34.4292 0
rclavicle -2.47224e-014 -1.4523e-014 0
rhumerus -41.0187 -3.83475 -89.4104
rradius 40.2568 0 0
rwrist 9.27408 0 0
rhand -25.2598 -21.6222 0
rfingers 7.12502 0 0
rthumb 1.26066 -51.5962 0
38
root 5.97525 16.8525 -28.1296 10.39 -0.468132 -2.02483
lfemur -22.6747 4.43569 -20.1617
ltibia 36.9356 0 0
lfoot -34.3347 -0.454373 0
ltoes 37.0349 0 0
rfemur -18.1232 1.52294 19.3938
rtibia 32.0882 0 0
rfoot -28.5307 -15.2704 0
rtoes 7.18668 0 0
lowerback -4.71741 2.35252 -0.686434
upperback -1.92611 3.13548 0.462344
thorax 0.500091 1.61423 0.98718
lowerneck -9.73098 -1.87743 2.58506
upperneck -3.20408 -2.73777 0.935382
head 0.594652 -1.38258 -0.235489
lclavicle -2.49494e-014 -1.38993e-014 0
lhumerus -41.3396 -13.2783 96.681
lradius 40.1005 0 0
lwrist 6.02333 0 0
lhand -10.9967 4.86575 0
lfingers 7.12502 0 0
lthumb 15.0237 34.3005 0
rclavicle -2.49494e-014 -1.38993e-014 0
rhumerus -40.9561 -3.80621 -89.5532
rradius 40.2507 0 0
rwrist 9.25684 0 0
rhand -25.3004 -21.5984 0
rfingers 7.12502 0 0
rthumb 1.22141 -51.5728 0
39
root 5.96801 16.853 -28.1294 10.427 -0.412411 -1.99691
lfemur -22.737 4.49334 -20.1662
ltibia 36.9628 0 0
lfoot -34.218 -0.573063 0
ltoes 36.983 0 0
rfemur -18.0867 1.55815 19.3902
rtibia 31.9815 0 0
rfoot -28.4808 -15.3994 0
rtoes 6.80123 0 0
lowerback -4.78947 2.31692 -0.568833
upperback -1.90608 3.08499 0.38044
thorax 0.577498 1.58569 0.840228
lowerneck -9.72784 -1.86416 2.60227
upperneck -3.2534 -2.72189 1.00536
head 0.579255 -1.37405 -0.215484
lclavicle -2.51764e-014 -1.32757e-014 0
lhumerus -41.3291 -13.3449 96.5958
lradius 40.2516 0 0
lwrist 6.12733 0 0
lhand -11.0075 4.73627 0
lfingers 7.12502 0 0
lthumb 15.0132 34.1718 0
rclavicle -2.51764e-014 -1.32757e-014 0
rhumerus -40.8935 -3.77767 -89.696
rradius 40.2446 0 0
rwrist 9.2396 0 0
rhand -25.3411 -21.5747 0
rfingers 7.12502 0 0
rthumb 1.18215 -51.5494 0
40
root 5.96076 16.8534 -28.1292 10.464 -0.356691 -1.969
lfemur -22.7992 4.55099 -20.1707
ltibia 36.9901 0 0
lfoot -34.1012 -0.691752 0
ltoes 36.9311 0 0
rfemur -18.0501 1.59336 19.3867
rtibia 31.8749 0 0
rfoot -28.4309 -15.5285 0
rtoes 6.41578 0 0
lowerback -4.86152 2.28133 -0.451232
upperback -1.88605 3.0345 0.298536
thorax 0.654905 1.55715 0.693276
lowerneck -9.72471 -1.85088 2.61949
upperneck -3.30272 -2.70601 1.07534
head 0.563858 -1.36552 -0.195479
lclavicle -2.54035e-014 -1.2652e-014 0
lhumerus -41.3187 -13.4116 96.5107
lradius 40.4028 0 0
lwrist 6.23133 0 0
lhand -11.0184 4.60679 0
lfingers 7.12502 0 0
lthumb 15.0027 34.0432 0
rclavicle -2.54035e-014 -1.2652e-014 0
rhumerus -40.8308 -3.74913 -89.8387
rradius 40.2385 0 0
rwrist 9.22236 0 0
rhand -25.3817 -21.551 0
rfingers 7.12502 0 0
rthumb 1.14289 -51.526 0
